<svg width="760" height="622" viewBox="0 0 760 622" xmlns="http://www.w3.org/2000/svg"><defs><marker id="ar" viewBox="0 0 10 10" refX="8" refY="5" markerWidth="6.5" markerHeight="6.5" orient="auto-start-reverse"><path d="M2 1.5L8 5L2 8.5" fill="none" stroke="context-stroke" stroke-width="1.6" stroke-linecap="round" stroke-linejoin="round"/></marker></defs><style>text{font-family:'Apple SD Gothic Neo','AppleGothic','Helvetica Neue',sans-serif}.m{font-family:'Menlo','SF Mono',monospace}.box-auth{fill:#1C2B49;stroke:#3E5C8F}.box-tab{fill:#3B7BF5}.box-feat{fill:#1B2A48;stroke:#3A5C93}.box-ext{fill:#222C44;stroke:#45536F}.tt-auth{fill:#BBCFF2}.ts-auth{fill:#7E96C0}.tt-tab{fill:#FFFFFF}.ts-tab{fill:#CFE0FF}.tt-feat{fill:#A6C6FF}.ts-feat{fill:#7288B6}.tt-ext{fill:#AEBBD3}.ts-ext{fill:#8492AB}.h-title{fill:#E6EDFB}.h-sub{fill:#93A8CC}.h-accent{fill:#4C86F5}.lg{fill:#AEBFDC}.cap{fill:#7E93BC}.conn{stroke:#566E9E}.dash{stroke:#3C4F79}</style><rect x="40" y="34" width="4" height="32" rx="2" class="h-accent"/><text x="56" y="50" font-size="20" font-weight="500" class="h-title">Doctor Green · Smart-Farm Virtual Lab</text><text x="56" y="68" font-size="12.5" class="h-sub">AI crop-doctor education · 4-station lab flow</text><rect x="566" y="34" width="13" height="13" rx="3" class="box-tab"/><text x="585" y="45" font-size="11.5" class="lg">Hub · App complete</text><rect x="566" y="53" width="13" height="13" rx="3" class="box-feat" stroke-width="1.2"/><text x="585" y="64" font-size="11.5" class="lg">STEP stations</text><rect x="566" y="72" width="13" height="13" rx="3" class="box-auth" stroke-width="1.2"/><text x="585" y="83" font-size="11.5" class="lg">DB tables (virtual Supabase)</text><rect x="566" y="91" width="13" height="13" rx="3" class="box-ext" stroke-width="1.2"/><text x="585" y="102" font-size="11.5" class="lg">Entry · Live demo</text><path d="M380 164 V192" fill="none" class="conn" stroke-width="1.3" marker-end="url(#ar)"/><path d="M380 242 V266" fill="none" class="conn" stroke-width="1.3"/><path d="M145 266 H616" fill="none" class="conn" stroke-width="1.3"/><path d="M145 266 V288" fill="none" class="conn" stroke-width="1.3" marker-end="url(#ar)"/><path d="M302 266 V288" fill="none" class="conn" stroke-width="1.3" marker-end="url(#ar)"/><path d="M459 266 V288" fill="none" class="conn" stroke-width="1.3" marker-end="url(#ar)"/><path d="M616 266 V288" fill="none" class="conn" stroke-width="1.3" marker-end="url(#ar)"/><path d="M145 336 V376" fill="none" class="conn" stroke-width="1.3" marker-end="url(#ar)"/><path d="M302 336 V376" fill="none" class="conn" stroke-width="1.3" marker-end="url(#ar)"/><path d="M459 336 V376" fill="none" class="conn" stroke-width="1.3" marker-end="url(#ar)"/><path d="M616 336 V376" fill="none" class="conn" stroke-width="1.3" marker-end="url(#ar)"/><path d="M145 420 V446" fill="none" class="conn" stroke-width="1.3"/><path d="M302 420 V446" fill="none" class="conn" stroke-width="1.3"/><path d="M459 420 V446" fill="none" class="conn" stroke-width="1.3"/><path d="M616 420 V446" fill="none" class="conn" stroke-width="1.3"/><path d="M145 446 H616" fill="none" class="conn" stroke-width="1.3"/><path d="M380 446 V472" fill="none" class="conn" stroke-width="1.3" marker-end="url(#ar)"/><path d="M380 524 V554" fill="none" class="conn" stroke-width="1.3" marker-end="url(#ar)"/><rect x="54" y="278" width="644" height="66" rx="13" fill="none" class="dash" stroke-width="1" stroke-dasharray="5 4"/><text x="380" y="273" font-size="11" text-anchor="middle" class="cap">4 STEPs · in order</text><rect x="54" y="366" width="644" height="62" rx="13" fill="none" class="dash" stroke-width="1" stroke-dasharray="5 4"/><text x="380" y="360" font-size="11" text-anchor="middle" class="cap">Virtual Supabase</text><rect x="248" y="120" width="264" height="44" rx="10" class="box-ext" stroke-width="1.2"/><text x="380" y="140" font-size="14" font-weight="500" text-anchor="middle" class="tt-ext">Open the Lab</text><text x="380" y="155" font-size="11" text-anchor="middle" class="ts-ext m">doctor-green-edu.vercel.app</text><rect x="230" y="192" width="300" height="50" rx="10" class="box-tab"/><text x="380" y="214" font-size="15" font-weight="500" text-anchor="middle" class="tt-tab">Lab Hub</text><text x="380" y="232" font-size="11" text-anchor="middle" class="ts-tab">pick room 1–15 · progress 0/4 → 4/4</text><rect x="70" y="288" width="150" height="48" rx="10" class="box-feat" stroke-width="1.2"/><text x="145" y="310" font-size="13.5" font-weight="500" text-anchor="middle" class="tt-feat">Public Weather</text><text x="145" y="326" font-size="11" text-anchor="middle" class="ts-feat m">STEP 1</text><rect x="227" y="288" width="150" height="48" rx="10" class="box-feat" stroke-width="1.2"/><text x="302" y="310" font-size="13.5" font-weight="500" text-anchor="middle" class="tt-feat">AI Vision (YOLO)</text><text x="302" y="326" font-size="11" text-anchor="middle" class="ts-feat m">STEP 2</text><rect x="384" y="288" width="150" height="48" rx="10" class="box-feat" stroke-width="1.2"/><text x="459" y="310" font-size="13.5" font-weight="500" text-anchor="middle" class="tt-feat">IoT Sensors</text><text x="459" y="326" font-size="11" text-anchor="middle" class="ts-feat m">STEP 3</text><rect x="541" y="288" width="150" height="48" rx="10" class="box-feat" stroke-width="1.2"/><text x="616" y="310" font-size="13.5" font-weight="500" text-anchor="middle" class="tt-feat">Camera Live</text><text x="616" y="326" font-size="11" text-anchor="middle" class="ts-feat m">STEP 4</text><rect x="70" y="376" width="150" height="44" rx="10" class="box-auth" stroke-width="1.2"/><text x="145" y="396" font-size="12.5" font-weight="500" text-anchor="middle" class="tt-auth m">weather_cache</text><text x="145" y="411" font-size="10" text-anchor="middle" class="ts-auth m">INSERT +1</text><rect x="227" y="376" width="150" height="44" rx="10" class="box-auth" stroke-width="1.2"/><text x="302" y="396" font-size="12.5" font-weight="500" text-anchor="middle" class="tt-auth m">diagnoses</text><text x="302" y="411" font-size="10" text-anchor="middle" class="ts-auth m">INSERT +1</text><rect x="384" y="376" width="150" height="44" rx="10" class="box-auth" stroke-width="1.2"/><text x="459" y="396" font-size="12.5" font-weight="500" text-anchor="middle" class="tt-auth m">sensor_readings</text><text x="459" y="411" font-size="10" text-anchor="middle" class="ts-auth m">INSERT +1</text><rect x="541" y="376" width="150" height="44" rx="10" class="box-auth" stroke-width="1.2"/><text x="616" y="396" font-size="12.5" font-weight="500" text-anchor="middle" class="tt-auth m">camera_frames</text><text x="616" y="411" font-size="10" text-anchor="middle" class="ts-auth m">INSERT +1</text><rect x="220" y="472" width="320" height="52" rx="10" class="box-tab"/><text x="380" y="495" font-size="15" font-weight="500" text-anchor="middle" class="tt-tab">App Complete</text><text x="380" y="514" font-size="11" text-anchor="middle" class="ts-tab">weather · AI · live analytics · camera</text><rect x="236" y="554" width="288" height="44" rx="10" class="box-ext" stroke-width="1.2"/><text x="380" y="574" font-size="14" font-weight="500" text-anchor="middle" class="tt-ext">Live Device Demo</text><text x="380" y="589" font-size="10.5" text-anchor="middle" class="ts-ext">optional · ESP32 hexa-board device</text></svg>